<?xml version="1.0" encoding="utf-8"?>
<svg version="1.1" id="Velocidades" xmlns="http://www.w3.org/2000/svg" xmlns:xlink="http://www.w3.org/1999/xlink" x="0px" y="0px" viewBox="0 0 500 400" style="enable-background: new 0 0 500 400;" xml:space="preserve">
    <style type="text/css">
        .st0 {
            fill: none;
        }
        .st1 {
            fill: #1e1e1c;
        }
        .st2 {
            font-family: "BarlowSemiCondensed-LightItalic";
        }
        .st3 {
            font-size: 7.5px;
        }
        .st4 {
            fill: #b1b1b1;
        }
        .st5 {
            fill: #d9d9d9;
        }
        .st6 {
            fill: #db9f00;
        }
        .st7 {
            fill: none;
            stroke: #db9f00;
            stroke-width: 0.5971;
            stroke-miterlimit: 10;
        }
        .st8 {
            fill: none;
            stroke: #b1b1b1;
            stroke-width: 0.5971;
            stroke-miterlimit: 10;
        }

        .st9 {
            fill: none;
            stroke: #1e1e1c;
            stroke-width: 0.75;
            stroke-linecap: round;
            stroke-linejoin: round;
            stroke-miterlimit: 10;
            stroke-dasharray: 0, 4, 0, 0;
        }

        .st10 {
            fill: none;
            stroke: #1e1e1c;
            stroke-width: 0.8957;
            stroke-linecap: round;
            stroke-linejoin: round;
            stroke-miterlimit: 10;
            stroke-dasharray: 0, 4.7771, 0, 0;
        }
        .st11 {
            font-family: "BarlowSemiCondensed-Light";
        }
        .st12 {
            font-size: 8.9571px;
        }
        .st13 {
            font-family: "BarlowSemiCondensed-SemiBold";
        }
        .st14 {
            fill: none;
            stroke: #1e1e1c;
            stroke-width: 0.5;
            stroke-miterlimit: 10;
        }
        .st15 {
            fill: none;
            stroke: #d9d9d9;
            stroke-width: 0.5971;
            stroke-miterlimit: 10;
        }

        @keyframes mueve {
            0% {
                transform: translate(-250px, 0px);
            }
            100% {
                transform: translate(0, 0);
            }
        }
        <!--100 km/h-->
        #Cheetah {
            transform-origin: center center;
            animation: mueve 2s infinite;
            animation-delay: 3.26s;
        }
        <!--88 km/h-->
        #Caballo {
            transform-origin: center center;
            animation: mueve 2.27s infinite;
            animation-delay: 2.99s;
        }
        <!--55 km/h-->
        #Rinoceronte {
            transform-origin: center center;
            animation: mueve 3.64s infinite;
            animation-delay: 1.62s;
        }
        <!--50 km/h-->
        #Gibon {
            transform-origin: center center;
            animation: mueve 4s infinite;
            animation-delay: 1.26s;
        }
        <!--48 km/h-->
        #Gato {
            transform-origin: center center;
            animation: mueve 4.17s infinite;
            animation-delay: 1.09s;
        }
        <!--Bolt record 100 m a 38 km/h-->
        #Humano {
            transform-origin: center center;
            animation: mueve 5.26s infinite;
        }
        <!--13 km/h error de escala-->
        #Raton {
            transform-origin: center center;
            animation: mueve 15.38s infinite;
        }
        <!--0.27 km/h-->
        #Perezoso {
            transform-origin: center center;
            animation: mueve 740.74s infinite;
        }          
    </style>
    <rect x="124.51" y="258.41" class="st0" width="209.93" height="6.75" />
    <path
        id="Cheetah"
        class="st4"
        d="m374.74 242.66c-0.3 0.34-0.6 0.68-0.94 1.07 0.08 0.53-0.4 0.92-1.01 0.7-0.36-0.13-0.65-0.16-0.98 0.05-0.16 0.1-0.36 0.15-0.54 0.19-1.95 0.37-3.24 1.62-4.31 3.17-0.48 0.7-0.91 1.44-1.33 2.18-0.49 0.84-1.32 1.19-2.15 1.53-0.46 0.19-0.94 0.32-1.44 0.5 0.13 1.18 0.27 2.34 0.75 3.42 0.07 0.16 0.15 0.32 0.23 0.48 0.39 0.76 0.31 1.39-0.23 2.13-0.92 1.23-2.27 1.87-3.4 2.82-0.21 0.17-0.49 0.23-0.69-0.03-0.19-0.25-0.42-0.52-0.21-0.87 0.06-0.11 0.14-0.22 0.22-0.32 0.74-0.82 1.47-1.65 2.22-2.45 0.26-0.27 0.36-0.5 0.19-0.85-0.57-1.18-1.13-2.38-1.72-3.63-0.94 0.75-1.75 1.53-2.37 2.47-0.45 0.68-0.81 1.43-1.26 2.11-0.61 0.92-1.51 1.5-2.52 1.86-0.96 0.34-1.61 0.96-2.02 1.87-0.08 0.17-0.39 0.43-0.44 0.39-0.21-0.13-0.51-0.35-0.51-0.55-0.02-0.65 0.01-1.32 0.14-1.95 0.12-0.58 0.57-0.92 1.18-0.99 1.48-0.17 2.46-1.04 2.88-2.37 0.47-1.47 1.16-2.82 1.91-4.14 0.04-0.07 0.07-0.14 0.13-0.27-1.19 0.35-2.13-0.16-2.98-0.8-0.96-0.72-1.87-1.53-2.79-2.29-0.3 1.04-1.16 1.65-1.96 2.29-0.57 0.46-1.19 0.88-1.73 1.28 0.47 0.69 1 1.33 1.37 2.05 0.21 0.41 0.13 0.95 0.2 1.44 0.02 0.14 0.05 0.3 0.13 0.41 0.38 0.5 0.79 0.98 1.16 1.48 0.2 0.28 0.34 0.61 0.05 0.92-0.27 0.3-0.77 0.34-1.15 0.12-0.28-0.16-0.6-0.25-0.85-0.44-0.33-0.26-0.7-0.55-0.9-0.91-0.7-1.24-1.66-2.25-2.63-3.26-0.22-0.23-0.44-0.47-0.65-0.71-0.68-0.78-0.68-0.78 0-1.55-0.35-0.53-0.69-1.08-1.07-1.6-0.27-0.37-0.23-0.69 0.07-0.99 0.31-0.3 0.65-0.57 1.01-0.89-1.4-0.88-2.77-1.81-3.46-3.57-0.4 0.37-0.81 0.67-1.11 1.06-0.36 0.47-0.62 1.01-0.91 1.53-0.86 1.51-1.68 3.04-2.57 4.53-1.28 2.13-3.21 3.28-5.67 3.56-0.96 0.11-1.88 0.37-2.77 0.79-0.35 0.17-0.8 0.2-1.2 0.17-0.44-0.02-0.71-0.36-0.83-0.78-0.11-0.42 0.02-0.8 0.34-1.09 0.43-0.39 0.96-0.48 1.51-0.54 1.15-0.13 2.33-0.15 3.43-0.46 2.08-0.6 3.37-2.18 4.34-4.02 0.72-1.37 1.32-2.79 2.33-3.99 1.17-1.39 2.51-2.58 4.08-3.51 1.08-0.64 2.15-1.28 3.41-1.54 1.59-0.32 3.18-0.3 4.74 0.05 2.59 0.57 5.14 1.27 7.73 1.82 3.05 0.65 6.08 0.57 8.98-0.74 1.01-0.45 1.96-1.02 2.94-1.53 0.04-0.02 0.11-0.06 0.11-0.08-0.07-0.63 0.49-0.57 0.83-0.72 0.51-0.24 0.77-0.11 0.95 0.42 0.03 0.09 0.07 0.18 0.1 0.27 0.27 0.01 0.53 0.01 0.78 0.04 0.94 0.09 1.61 0.46 1.93 1.45 0.16 0.5 0.62 0.9 0.95 1.34-0.02 0.15-0.02 0.31-0.02 0.47z"
    />
</svg>
