<?xml version="1.0" encoding="utf-8"?>
<svg version="1.1" id="Velocidades" xmlns="http://www.w3.org/2000/svg" xmlns:xlink="http://www.w3.org/1999/xlink" x="0px" y="0px" viewBox="0 0 500 400" style="enable-background: new 0 0 500 400;" xml:space="preserve">
    <style type="text/css">
        .st0 {
            fill: none;
        }
        .st1 {
            fill: #1e1e1c;
        }
        .st2 {
            font-family: "BarlowSemiCondensed-LightItalic";
        }
        .st3 {
            font-size: 7.5px;
        }
        .st4 {
            fill: #b1b1b1;
        }
        .st5 {
            fill: #d9d9d9;
        }
        .st6 {
            fill: #db9f00;
        }
        .st7 {
            fill: none;
            stroke: #db9f00;
            stroke-width: 0.5971;
            stroke-miterlimit: 10;
        }
        .st8 {
            fill: none;
            stroke: #b1b1b1;
            stroke-width: 0.5971;
            stroke-miterlimit: 10;
        }

        .st9 {
            fill: none;
            stroke: #1e1e1c;
            stroke-width: 0.75;
            stroke-linecap: round;
            stroke-linejoin: round;
            stroke-miterlimit: 10;
            stroke-dasharray: 0, 4, 0, 0;
        }

        .st10 {
            fill: none;
            stroke: #1e1e1c;
            stroke-width: 0.8957;
            stroke-linecap: round;
            stroke-linejoin: round;
            stroke-miterlimit: 10;
            stroke-dasharray: 0, 4.7771, 0, 0;
        }
        .st11 {
            font-family: "BarlowSemiCondensed-Light";
        }
        .st12 {
            font-size: 8.9571px;
        }
        .st13 {
            font-family: "BarlowSemiCondensed-SemiBold";
        }
        .st14 {
            fill: none;
            stroke: #1e1e1c;
            stroke-width: 0.5;
            stroke-miterlimit: 10;
        }
        .st15 {
            fill: none;
            stroke: #d9d9d9;
            stroke-width: 0.5971;
            stroke-miterlimit: 10;
        }    
    </style>
    <rect x="124.51" y="258.41" class="st0" width="209.93" height="6.75" />
    <path
        id="Rinoceronte"
        class="st4"
        d="m211.34 251.71c-0.08-0.06-0.08-0.31-0.04-0.45 0.11-0.38 0.29-0.75 0.39-1.14 0.24-0.86 0.62-1.72 0.63-2.58 0.05-2.41 0.7-4.62 1.92-6.69 1.57-2.64 3.94-4.44 6.71-5.81 1.13-0.56 2.28-0.93 3.57-0.92 0.69 0.01 1.38-0.12 2.07-0.19 2.18-0.22 4.19-1.02 6.21-1.78 1.22-0.46 2.48-0.7 3.79-0.39 1.79 0.42 3.57 0.88 5.38 1.25 2.82 0.59 5.66 1.14 8.57 0.85 0.61-0.06 1.25-0.16 1.8-0.42 2.08-0.96 4.26-1.05 6.5-0.86 1.65 0.14 3.31 0.27 4.97 0.26 3.37-0.03 5.88 1.56 7.02 4.56 0.06 0.16 0.14 0.43 0.25 0.45 0.81 0.15 1.31 0.7 1.85 1.21 0.02 0.02 0.08-0.01 0.25-0.04 0.13-0.39 0.29-0.84 0.46-1.33 0.52 0.45 1.63-0.01 1.77 1.27 1.44-0.68 2.8-1.31 4.27-2.01-0.23 0.57-0.36 1.06-0.62 1.47-0.79 1.26-1.13 3-3.18 3 0.08 0.7 0.24 1.37 0.23 2.03-0.03 2.12 0.74 3.87 2.36 5.29 0.29 0.25 0.62 0.5 0.81 0.82 0.7 1.19 1.76 1.47 3.07 1.33 0.42-0.04 0.86 0.1 1.39 0.16-0.57 1.12-1.82 0.83-2.49 1.59 0.24 0.11 0.48 0.18 0.7 0.13 2.14-0.51 4.05-1.45 5.74-2.82 0.18-0.15 0.49-0.36 0.61-0.3 0.2 0.1 0.42 0.4 0.42 0.61-0.02 1.04 0.01 2.1-0.58 3.05-1.17 1.89-2.7 3.43-4.59 4.67-0.38 0.25-0.69 0.7-0.88 1.12-0.41 0.88-0.76 1.79-1.07 2.71-0.27 0.8-0.88 1.01-1.64 1.09-0.87 0.09-1.73 0.22-2.6 0.33-0.2 0.02-0.45 0.07-0.6-0.01-0.76-0.4-1.52-0.79-2.22-1.27-0.62-0.42-1.15-0.96-1.71-1.45-0.51-0.45-1.01-0.91-1.49-1.38-0.49-0.47-0.89-1.04-1.44-1.44-0.71-0.52-1.26-1.08-1.45-1.95-0.05-0.26-0.3-0.48-0.51-0.8-0.17 0.21-0.3 0.33-0.37 0.47-0.51 1.09-1.51 1.41-2.57 0.83-0.09-0.05-0.22-0.08-0.31-0.05-0.9 0.28-1.79 0.57-2.68 0.87-0.08 0.03-0.18 0.09-0.22 0.16-0.65 1.15-1.32 2.29-1.91 3.46-0.27 0.53-0.34 1.15-0.56 1.71-0.62 1.59-0.11 3.2 1.67 3.81 0.77 0.26 0.92 0.97 1.36 1.6-0.8 0.23-1.51 0.58-2.21 0.59-1.58 0.01-3.17-0.14-4.75-0.25-0.65-0.05-0.97-0.45-0.77-1.07 0.22-0.68 0.6-1.31 0.92-1.99-0.94 0.13-1.62 0.75-2.3 1.37-0.43 0.4-0.87 0.79-1.34 1.15-0.41 0.31-0.86 0.27-1.28-0.03-0.65-0.48-1.01-1.08-0.85-1.78-0.25-0.13-0.49-0.19-0.59-0.33-0.52-0.75-0.4-1.84 0.24-2.55 0.38-0.42 0.75-0.84 1.09-1.3 0.43-0.59 0.83-0.7 1.54-0.41 0.33 0.13 0.69 0.21 1.05 0.24 0.16 0.01 0.38-0.13 0.47-0.27 0.05-0.07-0.09-0.31-0.2-0.42-0.35-0.35-0.79-0.62-1.07-1.01-0.42-0.59-0.74-1.25-1.12-1.91-0.02 0-0.09 0-0.16 0.02-4.52 1.25-9.1 1.88-13.81 1.2-3.34-0.48-6.26-1.66-8.34-4.37-0.2-0.26-0.44-0.5-0.57-0.64-0.58 0.5-1.11 0.98-1.66 1.44-0.89 0.73-1.58 1.56-1.63 2.75-0.03 0.56-0.05 1.12-0.17 1.66-0.44 2.01-0.3 3.94 0.75 5.77 0.34 0.6 0.66 1.2 1.43 1.33 0.62 0.11 1.06 0.4 1.21 1.02 0.07 0.3 0.27-0.41 0.15-0.31-0.24 0.2-0.66 0.23-1.01 0.25-0.41 0.02-0.88-0.17-1.22-0.03-0.87 0.33-1.67 0.18-2.51-0.03-0.29-0.07-0.59-0.12-0.88-0.12-1.61-0.01-1.64 1.15-1.16-0.36 0.01-0.04 0.04-0.08 0.05-0.13 0.23-0.82 0.09-1.55-0.62-2.11-0.45-0.35-0.85-0.77-1.33-1.06-0.91-0.56-1.16-1.29-0.96-2.29 0.2-0.96 0.26-1.95 0.38-2.93-0.07-0.01-0.13-0.03-0.2-0.04-0.08 0.15-0.18 0.28-0.24 0.44-0.42 1.13-0.91 2.25-1.23 3.4-0.37 1.33-0.32 2.58 0.96 3.56 0.62 0.47 1.02 1.16 1.13 1.91-1.13 0-2.18 0.01-3.23 0-0.93-0.01-1.87-0.01-2.8-0.06-0.59-0.03-0.9-0.45-0.79-1.04 0.08-0.41 0.22-0.82 0.42-1.19 0.7-1.3 0.56-2.48-0.39-3.6-0.13-0.15-0.22-0.35-0.36-0.49-0.47-0.5-0.43-1.01-0.15-1.6 0.62-1.34 1.21-2.7 1.74-4.07 0.34-0.9 0.03-1.87-0.66-2.57-0.09 0.19-0.19 0.38-0.27 0.55-1.1-0.5-0.85-1.76-1.71-2.37zm1.32-1.47c-0.23 0.4-0.46 0.72-0.6 1.07-0.05 0.12 0.06 0.36 0.17 0.48 0.31 0.33 0.66 0.64 1.11 1.06-0.23-0.87-0.44-1.7-0.68-2.61z"
    />
</svg>
